
<svg version="1.1" xmlns="http://www.w3.org/2000/svg" xmlns:xlink="http://www.w3.org/1999/xlink" x="0px" y="0px" width="1000px"
	 height="300px" viewBox="0 0 1000 300" >
<style>
      g { display: none }
      g:target {
      	display: inline
      }
      </style>
		<g id="logo__p">
			<path fill="none" stroke="var(--x, blue)" stroke-linejoin="bevel" stroke-width="21.99" d="M83.59,176.52c82.55-7,127.77-63.38,115.71-97s-60.44-24.32-86.76,19.73S64.8,248.49,64.8,248.49l44.89-197"/>
		</g>
		<g id="logo__areto">
			<path fill="none" stroke="var(--x, red)" stroke-linejoin="bevel" stroke-width="20.02" d="M253.22,180.61c4.3-21.3-11.91-38.93-43.45-17.38-24.38,16.66-36.2,52.28-21.31,65.89s35.87,4.31,51.9-22.37c14.67-24.41,28-66.53,28-66.53s-30.92,85,.39,93.44c29.81,8,40.52-34.07,56.63-91.33,8,37.08,25.2,24.57,30.85,38.53,5.73,14.15-24.84,44.71-3.68,52.91s41.09-14.4,49.17-35.5c17.49,2.38,41.88,1.22,56-20.76,9.71-15.12-.32-27.29-16.49-26.92-15.68.37-32.2,12.92-38.12,35.85-6.91,26.77,16.5,56,55.17,44.95,48.73-13.95,66-80.7,88.38-151-35.5,111.18-30.12,135.84-13.87,148s42.35-4.2,48.43-27.63c-4.15-27.36,19.3-52.68,46.86-48-27.56-4.71-50.35,19.29-46.86,48s41,47.46,65.5,21.36,8.71-60.42-11.05-67.46c-15.42-5.5-33.27-.77-35.56,12.73-2.54,14.95,16.46,28.28,37.37,28,19.24-.28,42.24-11.33,51-33.92"/>
		</g>
		<g id="logo__t">
			<path fill="none" stroke="var(--x, green)" stroke-miterlimit="10" stroke-width="20.02" d="M472.29 125.94L601.99 119.84"/>
		</g>
		<g id="logo__beta">
			<path fill="var(--x, orange)" d="M753.47,56.88c16.38,0,26,9.7,26,23.3a19.1,19.1,0,0,1-12.86,18.56c9.83,2.43,15.53,11.17,15.53,20.76,0,13.59-10.8,23.42-26.58,23.42H725.44v-86ZM752.13,94.5c9.59,0,15.3-5.71,15.3-13.72s-5.95-13.47-15.78-13.47H737.33V94.5Zm1.7,38c9.59,0,16.15-5.34,16.15-13.71s-5.22-14.08-15.66-14.08h-17v27.79Z"/><path fill="var(--x, indigo)" d="M849.58,126.29c-3.27,10.32-12.62,18.45-26.21,18.45-15.65,0-29.37-11.41-29.37-31.19,0-18.32,13.23-30.82,27.91-30.82,18,0,28,12.37,28,30.58a26,26,0,0,1-.24,3.64H805.77c.25,10.44,7.77,17.72,17.6,17.72,9.47,0,14.2-5.22,16.38-11.77Zm-11.53-18.56c-.24-8.38-5.7-14.93-16-14.93a15.7,15.7,0,0,0-15.9,14.93Z"/><path fill="var(--x, lime)" d="M879.56,84.55h12.62V94.86H879.56V125.2c0,5.34,2.18,8,8.13,8a23.3,23.3,0,0,0,4.49-.48v9.7a24.68,24.68,0,0,1-7.77,1.1c-9.95,0-16.26-6.07-16.26-16.63v-32H857V84.55h3.15c6.31,0,9-3.89,9-9V66.1h10.44Z"/><path fill="var(--x, crimson)" d="M919.61,109.55l15.77-2.31c3.52-.49,4.49-2.31,4.49-4.37,0-5.7-3.76-10.44-12.62-10.44-8,0-12.5,5-13.23,11.78l-10.92-2.55c1.21-11.17,11.29-18.93,23.91-18.93,17.47,0,24.27,10,24.27,21.35v29.25a55.17,55.17,0,0,0,.73,9.59H940.84a43.21,43.21,0,0,1-.6-7.89c-2.55,4.13-8.38,9.71-18.81,9.71-11.9,0-19.54-8.25-19.54-17.48C901.89,116.83,909.53,111,919.61,109.55Zm20.26,8.37v-2.67L922,117.92c-4.85.73-8.49,3.52-8.49,8.74,0,4.37,3.64,8.49,9.46,8.49C932.35,135.15,939.87,130.66,939.87,117.92Z"/>
		</g>
</svg>