 <svg
        width="276px"
        height="252px"
        viewBox="0 0 276 252"
        fill="none"
        version="1.1"
        xmlns="http://www.w3.org/2000/svg"
        xmlns:xlink="http://www.w3.org/1999/xlink"
      >
          <g clip-path="url(#clip0_74_4)" id="avatar">
            <g filter="url(#filter0_i_74_4)">
              <path
                fill-rule="evenodd"
                clip-rule="evenodd"
                d="M22.642 95.673C37.182 43.634 84.263 7.689 137.883 7.689C191.503 7.689 238.584 43.634 253.124 95.673L260.464 93.588C244.998 38.235 194.918 0 137.883 0C80.848 0 30.768 38.235 15.302 93.588L22.642 95.673ZM253.124 155.469C238.584 207.507 191.503 243.453 137.883 243.453C84.263 243.453 37.182 207.507 22.642 155.469L15.302 157.554C30.768 212.907 80.848 251.142 137.883 251.142C194.918 251.142 244.998 212.907 260.464 157.554L253.124 155.469ZM14.949 141.571L0 111.673L6.685 108.33L18.292 131.543L29.898 108.33L36.583 111.673L21.634 141.571H14.949ZM253.907 108.33L238.958 138.228L245.644 141.571L257.25 118.358L268.856 141.571L275.542 138.228L260.593 108.33H253.907Z"
                fill="var(--x-500)"
                style="mix-blend-mode:color-dodge"
              />
            </g>
          </g>
      </svg>